
<svg width="1440" height="866" viewBox="0 0 1440 866" fill="none" xmlns="http://www.w3.org/2000/svg">
    <g clip-path="url(#clip0_2_1554)">
        <circle opacity="0.6" cx="1290" cy="166" r="203" fill="#5C67E6"/>
        <circle opacity="0.6" cx="913" cy="548" r="84" fill="#2EC5CE"/>
        <g filter="url(#filter0_b_2_1554)">
            <path d="M0 0H1440V572L0 752V0Z" fill="#ffffff" fill-opacity="0"/>
        </g>
        <path d="M1260 594.005L1680 541.488V605.488L1260 658.005V594.005Z" fill="#75E3EA"/>
        <path d="M828 584.808L1440 508V572L828 648.808V584.808Z" fill="#0248D5" fill-opacity="0.4"/>
        <path d="M988 500.517L1408 448V512L988 564.517V500.517Z" fill="#D5FAFC"/>
        <path d="M0 688.016L420 635.499V699.499L0 752.016V688.016Z" fill="#75E3EA"/>
        <path d="M-152 771.005L268 718.488V782.488L-152 835.005V771.005Z" fill="#5C67E6" fill-opacity="0.4"/>
    </g>
    <defs>
        <filter id="filter0_b_2_1554" x="-100" y="-100" width="1640" height="952" filterUnits="userSpaceOnUse" color-interpolation-filters="sRGB">
            <feFlood flood-opacity="0" result="BackgroundImageFix"/>
            <feGaussianBlur in="BackgroundImageFix" stdDeviation="50"/>
            <feComposite in2="SourceAlpha" operator="in" result="effect1_backgroundBlur_2_1554"/>
            <feBlend mode="normal" in="SourceGraphic" in2="effect1_backgroundBlur_2_1554" result="shape"/>
        </filter>
        <clipPath id="clip0_2_1554">
        <rect width="1440" height="866" fill="white"/>
        </clipPath>
    </defs>
</svg>
